<svg id="All_glyphs" data-name="All glyphs" xmlns="http://www.w3.org/2000/svg" viewBox="0 0 84 84"><title>options</title><path d="M83.29,49.32c0-5.24,3.22-9.37,8.08-12.21a44.16,44.16,0,0,0-3.46-8.36c-5.44,1.42-9.85-.71-13.55-4.41s-4.84-8.11-3.41-13.56a44.07,44.07,0,0,0-8.36-3.46c-2.84,4.86-8,8.08-13.21,8.08S39,12.17,36.16,7.32a44.13,44.13,0,0,0-8.36,3.46c1.42,5.44.29,9.85-3.41,13.56s-8.11,5.84-13.56,4.41A44.1,44.1,0,0,0,7.37,37.1c4.86,2.84,8.08,7,8.08,12.21S12.23,59.69,7.37,62.53a44.14,44.14,0,0,0,3.46,8.36c5.44-1.42,9.85-.29,13.56,3.41s4.84,8.11,3.41,13.56a44,44,0,0,0,8.36,3.46c2.84-4.85,8-8.08,13.21-8.08s10.37,3.22,13.21,8.08a44.08,44.08,0,0,0,8.36-3.46c-1.42-5.44-.29-9.85,3.41-13.55s8.11-5.84,13.55-4.41a44.14,44.14,0,0,0,3.46-8.36C86.52,58.69,83.29,54.56,83.29,49.32ZM49.37,67.58A18.27,18.27,0,1,1,67.64,49.32,18.27,18.27,0,0,1,49.37,67.58Z" transform="translate(-7.37 -7.32)"/></svg>