<svg id="All_glyphs" data-name="All glyphs" xmlns="http://www.w3.org/2000/svg" viewBox="0 0 100 80"><title>photo</title><path d="M54,39.47a15,15,0,1,0,15,15A15,15,0,0,0,54,39.47Zm40-15H82a4.45,4.45,0,0,1-3.95-2.85L75,12.32A4.46,4.46,0,0,0,71,9.47H37a4.45,4.45,0,0,0-3.95,2.85L30,21.63A4.46,4.46,0,0,1,26,24.47H14a10,10,0,0,0-10,10v45a10,10,0,0,0,10,10H94a10,10,0,0,0,10-10v-45A10,10,0,0,0,94,24.47Zm-40,55a25,25,0,1,1,25-25A25,25,0,0,1,54,79.47Zm36.5-38A3.5,3.5,0,1,1,94,38,3.5,3.5,0,0,1,90.52,41.46Z" transform="translate(-4.02 -9.47)"/></svg>