<svg id="All_glyphs" data-name="All glyphs" xmlns="http://www.w3.org/2000/svg" viewBox="0 0 96 96"><title>pinterst</title><path d="M54.15,6a48,48,0,1,0,48,48A48,48,0,0,0,54.15,6Zm3.28,59.38c-3.08-.24-4.37-1.76-6.78-3.23-1.33,7-2.95,13.62-7.75,17.11-1.48-10.51,2.18-18.41,3.87-26.79-2.89-4.87.35-14.68,6.46-12.27,7.51,3-6.51,18.12,2.9,20C66,62.19,70,43.16,63.89,37c-8.81-8.93-25.63-.2-23.56,12.59,0.5,3.13,3.73,4.08,1.29,8.39C36,56.7,34.3,52.26,34.52,46.33c0.35-9.7,8.72-16.49,17.11-17.43,10.61-1.19,20.58,3.9,22,13.88C75.12,54.05,68.78,66.26,57.44,65.38Z" transform="translate(-6.15 -5.99)"/></svg>