<svg id="All_glyphs" data-name="All glyphs" xmlns="http://www.w3.org/2000/svg" viewBox="0 0 86 84"><title>trash</title><path d="M89.44,17c-1.48-1.28-9.53-7.37-11-8.67A8.81,8.81,0,0,0,72.9,6.67H24.77a8.81,8.81,0,0,0-5.51,1.66c-1.5,1.3-9.55,7.39-11,8.67a6.36,6.36,0,0,0-2.32,6c0.4,2.75,9.68,64.86,9.68,64.86a4.46,4.46,0,0,0,4,2.85H78.12a4.46,4.46,0,0,0,4-2.85S91.36,25.71,91.76,23A6.36,6.36,0,0,0,89.44,17ZM48.83,60.51c-16.24,0-19.72-23-20.44-27.72h9.18C39,39.69,42.11,51.51,48.83,51.51S58.7,39.69,60.09,32.79h9.18C68.55,37.52,65.07,60.51,48.83,60.51ZM13.65,23.67l11-11.5H73l11,11.5H13.65Z" transform="translate(-5.83 -6.67)"/></svg>