<svg id="All_glyphs" data-name="All glyphs" xmlns="http://www.w3.org/2000/svg" viewBox="0 0 96 96"><title>twitter</title><path d="M54.47,5.46a48,48,0,1,0,48,48A48,48,0,0,0,54.47,5.46ZM74,44.78c0,0.41,0,.81,0,1.22,0,12.49-9.51,26.9-26.9,26.9a26.75,26.75,0,0,1-14.49-4.25,19.08,19.08,0,0,0,14-3.91,9.46,9.46,0,0,1-8.83-6.56A9.46,9.46,0,0,0,42.07,58a9.46,9.46,0,0,1-7.58-9.27s0-.08,0-0.12a9.42,9.42,0,0,0,4.28,1.18,9.47,9.47,0,0,1-2.93-12.62,26.84,26.84,0,0,0,19.49,9.88,9.46,9.46,0,0,1,16.11-8.62,18.9,18.9,0,0,0,6-2.29,9.49,9.49,0,0,1-4.16,5.23,18.9,18.9,0,0,0,5.43-1.49A19.21,19.21,0,0,1,74,44.78Z" transform="translate(-6.47 -5.46)"/></svg>