<svg id="All_glyphs" data-name="All glyphs" xmlns="http://www.w3.org/2000/svg" viewBox="0 0 94 90"><title>user</title><path d="M78.83,73.93c-12.33-4.49-16.27-8.28-16.27-16.4,0-4.87,3.76-3.28,5.42-12.2,0.69-3.7,4-.06,4.65-8.51,0-3.37-1.81-4.2-1.81-4.2s0.92-5,1.28-8.82C72.55,19,69.34,6.69,52.23,6.69S31.92,19,32.37,23.81c0.36,3.83,1.28,8.82,1.28,8.82s-1.81.84-1.81,4.2c0.63,8.45,4,4.81,4.64,8.51,1.65,8.92,5.42,7.33,5.42,12.2,0,8.11-3.94,11.9-16.26,16.4S5.23,83,5.23,86.16V96.69h94V86.16C99.23,83,91.2,78.44,78.83,73.93Z" transform="translate(-5.23 -6.69)"/></svg>