<?xml version="1.0" encoding="utf-8"?>
<!-- Generator: Adobe Illustrator 19.2.0, SVG Export Plug-In . SVG Version: 6.00 Build 0)  -->
<svg version="1.1" id="Слой_1" xmlns="http://www.w3.org/2000/svg" xmlns:xlink="http://www.w3.org/1999/xlink" x="0px" y="0px"
	 viewBox="0 0 16.2 16.3" style="enable-background:new 0 0 16.2 16.3;" xml:space="preserve">
<path d="M15.4,14.7c0.2,0.2,0.2,0.6,0,0.9c-0.2,0.2-0.6,0.2-0.8,0l-6.8-7C7.6,8.4,7.6,8,7.8,7.7l6.8-6.8c0.2-0.2,0.6-0.2,0.8,0
	s0.2,0.6,0,0.9L9.2,8.2L15.4,14.7z"/>
<path d="M0.8,14.7c-0.2,0.2-0.2,0.6,0,0.9c0.2,0.2,0.6,0.2,0.8,0l6.8-6.9c0.2-0.2,0.2-0.6,0-0.9L1.6,0.9C1.4,0.7,1,0.7,0.8,0.9
	s-0.2,0.6,0,0.9L7,8.3L0.8,14.7z"/>
</svg>
