<svg id="All_glyphs" data-name="All glyphs" xmlns="http://www.w3.org/2000/svg" viewBox="0 0 96 96"><title>google-plus</title><path d="M49.14,40.1C47.94,35.85,46,34.6,43,34.6a3.57,3.57,0,0,0-1,.13A4.59,4.59,0,0,0,39,37.82a8.73,8.73,0,0,0-.12,5.34c0.92,3.5,3.41,6,5.92,6a3.56,3.56,0,0,0,1-.13C48.56,48.3,50.28,44.11,49.14,40.1ZM53.66,5.68a48,48,0,1,0,48,48A48,48,0,0,0,53.66,5.68ZM50.89,74.29a18.07,18.07,0,0,1-7.52,1.62H42.73c-2,0-11.71-.45-11.71-9.34,0-8.73,10.62-9.41,13.88-9.41H45a7.24,7.24,0,0,1-1.49-5l-0.7,0a10.66,10.66,0,0,1-5.62-1.51c-2.49-1.6-3.75-4.32-3.75-8.1,0-10.65,11.63-11.08,11.75-11.09H56.79V31.7c0,1.3-2.33,1.55-3.93,1.77a10.33,10.33,0,0,0-1.93.35c2.94,1.57,3.42,4,3.42,7.72a9.78,9.78,0,0,1-3.38,8c-1.07,1-1.92,1.72-1.92,2.73s1.16,2,2.51,3.2c2.21,1.94,5.23,4.59,5.23,9.05C56.79,69.08,54.81,72.39,50.89,74.29ZM76.3,53.63H68.72v7.58h-4.8V53.63H56.34v-4.8h7.58V41.25h4.8v7.58H76.3v4.8Zm-31.53,5.8-0.78,0a9.62,9.62,0,0,0-5.76,2.34,5.87,5.87,0,0,0-2.11,4.71c0.22,3.55,4,5.63,8.67,5.3s7.6-3,7.38-6.51C52,62,49.06,59.43,44.77,59.43Z" transform="translate(-5.66 -5.68)"/></svg>