<svg id="All_glyphs" data-name="All glyphs" xmlns="http://www.w3.org/2000/svg" viewBox="0 0 79 79"><title>search</title><path d="M80.45,70.74L61.55,51.84A30.78,30.78,0,0,0,66,35.79C66,18.7,51.24,3.9,34.16,3.9A30.93,30.93,0,0,0,3.22,34.84c0,17.08,14.8,31.88,31.88,31.88a30.78,30.78,0,0,0,15.57-4.21l19,19a4.76,4.76,0,0,0,6.73,0l4.71-4.71C83,74.94,82.31,72.6,80.45,70.74ZM12.74,34.84A21.41,21.41,0,0,1,34.16,13.42C46,13.42,56.52,24,56.52,35.79A21.42,21.42,0,0,1,35.11,57.2C23.28,57.2,12.74,46.66,12.74,34.84Z" transform="translate(-3.22 -3.9)"/></svg>